Coordinates
version=1
nRows=12
nColumns=24
inDegrees=yes

Units are S.I. units (second, meters, Newtons, ...)
Angles are in degrees.

endheader
time	pelvis_tilt	pelvis_list	pelvis_rotation	pelvis_tx	pelvis_ty	pelvis_tz	hip_flexion_r	hip_adduction_r	hip_rotation_r	knee_angle_r	ankle_angle_r	subtalar_angle_r	mtp_angle_r	hip_flexion_l	hip_adduction_l	hip_rotation_l	knee_angle_l	ankle_angle_l	subtalar_angle_l	mtp_angle_l	lumbar_extension	lumbar_bending	lumbar_rotation
      3.77000000	    -11.24955758	     -8.51704727	      2.85575970	     -2.45291491	     -0.02375503	      0.46133232	     22.42377529	     10.67901960	     -9.03178469	    -16.26830975	     -4.26735750	     -7.32032289	      3.55729846	     18.88808856	     -9.36718752	      1.81127474	    -60.04899279	    -24.46288551	     -7.74182483	     22.33979065	      6.85385600	      8.33566419	     -5.12542337
      3.77500000	    -11.13018089	     -8.44914892	      2.75861481	     -2.44790227	     -0.02318442	      0.46194581	     21.83203963	     10.76083338	     -8.79681990	    -16.09627127	     -4.09363711	     -7.41328649	      3.54186502	     19.54922331	     -9.27183539	      1.88214764	    -60.81850471	    -24.26478974	     -9.19766913	     21.70011594	      6.66677625	      8.25160196	     -4.83954407
      3.78000000	    -11.02812721	     -8.28696218	      2.61818769	     -2.44290237	     -0.02256723	      0.46260077	     21.24866346	     10.75899267	     -8.45882696	    -15.93351003	     -3.86987893	     -7.48609448	      3.50373846	     20.18598732	     -9.07897545	      1.89147661	    -61.47275910	    -24.01339328	    -10.49307824	     21.01320542	      6.48616613	      8.06907190	     -4.50143242
      3.78500000	    -10.94020077	     -8.09142773	      2.46092454	     -2.43792261	     -0.02193115	      0.46324874	     20.67834355	     10.72089517	     -8.10939230	    -15.77227506	     -3.64866098	     -7.53766064	      3.44676656	     20.81523427	     -8.84958673	      1.89080090	    -62.02742751	    -23.61361053	    -11.50397559	     20.49408832	      6.32043755	      7.85592317	     -4.15412352
      3.79000000	    -10.86700948	     -7.85037947	      2.29264479	     -2.43296277	     -0.02127112	      0.46389785	     20.12319460	     10.63259079	     -7.75485214	    -15.61343078	     -3.42648887	     -7.58699614	      3.38192321	     21.43678121	     -8.57139425	      1.87471938	    -62.47616676	    -23.09902755	    -12.26029075	     20.14018605	      6.16965438	      7.59425125	     -3.79630279
      3.79500000	    -10.79923763	     -7.60903931	      2.10987826	     -2.42802760	     -0.02059800	      0.46454975	     19.57055291	     10.54219224	     -7.39283162	    -15.44509441	     -3.21980888	     -7.60827226	      3.29755440	     22.05184771	     -8.29788822	      1.84289309	    -62.83944642	    -22.47244402	    -12.79648790	     19.87699703	      6.02639893	      7.33328329	     -3.41100290
      3.80000000	    -10.76029509	     -7.29541417	      1.96506905	     -2.42313448	     -0.01989967	      0.46515455	     19.05776116	     10.35332197	     -7.08458285	    -15.28463188	     -3.01159762	     -7.64692228	      3.26607905	     22.67739423	     -7.92150687	      1.84772007	    -63.07414835	    -21.79721038	    -13.13540857	     19.89200409	      5.91630072	      6.98957361	     -3.09994291
      3.80500000	    -10.73105577	     -6.94987111	      1.77235636	     -2.41826933	     -0.01918218	      0.46578816	     18.55277546	     10.13958503	     -6.71490511	    -15.12317316	     -2.80008094	     -7.66136774	      3.23580420	     23.28344124	     -7.53064279	      1.78473357	    -63.20826162	    -21.06019178	    -13.31280416	     19.96619020	      5.81106553	      6.61836032	     -2.73476987
      3.81000000	    -10.70261844	     -6.59163946	      1.51591665	     -2.41340226	     -0.01843673	      0.46649765	     18.04244203	      9.92734259	     -6.29079285	    -14.95327439	     -2.60875201	     -7.63904848	      3.18282798	     23.85542958	     -7.15874064	      1.65746504	    -63.24728825	    -20.19078067	    -13.23065485	     20.11201179	      5.70563093	      6.24275556	     -2.25630116
      3.81500000	    -10.68301975	     -6.20613076	      1.29623602	     -2.40858902	     -0.01769789	      0.46713327	     17.55172103	      9.66498430	     -5.88543299	    -14.78955483	     -2.41605797	     -7.63095624	      3.14387653	     24.43085416	     -6.73935182	      1.55407224	    -63.19699292	    -19.26687253	    -13.00960300	     20.31871320	      5.61359084	      5.83805687	     -1.88141908
      3.82000000	    -10.67319296	     -5.80206819	      1.07653128	     -2.40378951	     -0.01696488	      0.46775434	     17.07401294	      9.37422582	     -5.50655301	    -14.61844860	     -2.22864379	     -7.61875704	      3.13233986	     25.00095079	     -6.30301740	      1.43711952	    -63.05678460	    -18.33466765	    -12.68569827	     20.57191370	      5.53834791	      5.41289838	     -1.49814570
      3.82500000	    -10.67225187	     -5.38081190	      0.84660602	     -2.39899738	     -0.01624313	      0.46838846	     16.61069850	      9.06061916	     -5.15090883	    -14.44421341	     -2.04397357	     -7.59986002	      3.15276096	     25.56098982	     -5.85935202	      1.29493654	    -62.82532517	    -17.43238872	    -12.30768928	     20.85300191	      5.47840211	      4.97092884	     -1.10384407
